<?xml version="1.0" encoding="iso-8859-1"?>
<!-- Uploaded to: SVG Repo, www.svgrepo.com, Generator: SVG Repo Mixer Tools -->
<svg fill="#000000" height="800px" width="800px" version="1.1" id="Layer_1" xmlns="http://www.w3.org/2000/svg" xmlns:xlink="http://www.w3.org/1999/xlink" 
	 viewBox="0 0 503.783 503.783" xml:space="preserve">
<g>
	<g>
		<g>
			<path d="M429.012,370.05c47.431-40.02,74.467-97.842,74.467-160.214C503.478,94.132,409.346,0,293.642,0
				c-62.372,0-120.186,27.035-160.206,74.458c-7.68-7.814-15.746-14.563-23.644-18.743c-16.166-8.561-35.714-5.615-48.648,7.319
				L39.85,84.321c-41.967,41.967-50.579,90.364-25.608,143.83c8.377,17.937,20.816,35.244,36.965,51.452l172.2,172.771
				c13.203,13.245,27.035,23.888,41.111,31.626c23.98,13.195,46.97,19.783,68.885,19.783c31.039,0,59.904-13.22,86.293-39.617
				l21.294-21.294c12.934-12.926,15.872-32.474,7.319-48.64C444.028,386.149,437.061,377.898,429.012,370.05z M416.447,358.736
				c-1.838-1.528-3.685-3.013-5.531-4.474c-0.378-0.302-0.747-0.596-1.125-0.89c-1.863-1.469-3.727-2.904-5.565-4.289
				c-0.445-0.336-0.873-0.646-1.318-0.974c-1.335-0.999-2.661-1.964-3.962-2.913c-0.755-0.537-1.494-1.074-2.224-1.603
				c-1.402-0.999-2.778-1.964-4.121-2.896c-0.923-0.646-1.805-1.242-2.694-1.855c-0.63-0.428-1.234-0.839-1.838-1.242
				c-1.637-1.1-3.164-2.124-4.633-3.08c-0.336-0.218-0.68-0.453-0.999-0.663c-0.898-0.579-1.737-1.125-2.552-1.645
				c-0.218-0.143-0.42-0.26-0.63-0.403c-1.402-0.89-2.644-1.679-3.752-2.367c-0.302-0.185-0.588-0.361-0.865-0.529
				c-0.52-0.327-1.007-0.621-1.444-0.89c-0.159-0.101-0.277-0.168-0.428-0.26c-0.806-0.495-1.41-0.856-1.805-1.091
				c-0.302-0.176-0.529-0.311-0.604-0.361c-10.727-6.11-21.823-8.041-31.24-5.422c-7.084,1.964-12.859,6.438-16.745,12.968
				c-2.14,2.56-4.415,5.229-6.648,7.823c-6.723,7.772-13.178,14.856-15.108,16.25c-2.484,1.679-4.91,3.131-7.277,4.339
				c-7.101,3.634-13.723,5.145-20.161,4.499c-8.578-0.856-16.812-5.54-25.399-14.118l-96.407-96.415
				c-17.165-17.165-18.743-32.961-5.305-52.803c1.88-2.594,13.849-13.22,24.089-21.781c6.53-3.886,11.012-9.669,12.976-16.753
				c2.61-9.426,0.68-20.514-5.431-31.232l-0.05-0.084c-0.126-0.218-0.772-1.309-1.847-3.072c-0.159-0.269-0.344-0.562-0.529-0.865
				c-0.311-0.495-0.638-1.024-0.999-1.603c-0.504-0.814-1.058-1.687-1.662-2.636c-0.319-0.504-0.638-0.999-0.982-1.544
				c-0.478-0.747-0.982-1.511-1.511-2.333c-0.285-0.436-0.588-0.898-0.89-1.351c-0.898-1.368-1.855-2.803-2.871-4.314
				c-0.436-0.638-0.865-1.276-1.309-1.93c-0.604-0.881-1.209-1.754-1.838-2.669c-0.94-1.351-1.914-2.736-2.921-4.146
				c-0.512-0.722-1.049-1.452-1.586-2.191c-0.848-1.167-1.712-2.35-2.594-3.542c-0.462-0.621-0.906-1.217-1.377-1.838
				c-1.318-1.763-2.694-3.534-4.088-5.313c-0.353-0.453-0.705-0.898-1.066-1.343c-1.561-1.972-3.156-3.953-4.801-5.909
				c36.856-44.695,90.733-70.194,148.858-70.194c106.454,0,193.049,86.604,193.049,193.049
				C486.691,267.986,461.184,321.88,416.447,358.736z"/>
			<path d="M293.642,58.754c4.633,0,8.393-3.76,8.393-8.393V33.574c0-4.633-3.76-8.393-8.393-8.393c-4.633,0-8.393,3.76-8.393,8.393
				v16.787C285.249,54.994,289.009,58.754,293.642,58.754z"/>
			<path d="M453.118,218.229h16.787c4.642,0,8.393-3.76,8.393-8.393s-3.752-8.393-8.393-8.393h-16.787
				c-4.642,0-8.393,3.76-8.393,8.393S448.476,218.229,453.118,218.229z"/>
			<path d="M412.347,79.258l-11.877,11.868c-3.282,3.282-3.282,8.595,0,11.877c1.637,1.637,3.785,2.459,5.934,2.459
				c2.149,0,4.297-0.823,5.934-2.451l11.877-11.877c3.282-3.273,3.282-8.586,0-11.868C420.934,75.985,415.629,75.993,412.347,79.258
				z"/>
			<path d="M412.339,316.664c-3.282-3.273-8.587-3.273-11.868,0c-3.282,3.282-3.282,8.595,0,11.877l11.877,11.868
				c1.637,1.637,3.785,2.451,5.934,2.451c2.149,0,4.297-0.814,5.934-2.451c3.282-3.282,3.282-8.595,0-11.877L412.339,316.664z"/>
			<path d="M174.941,79.268c-3.282-3.282-8.586-3.282-11.868,0c-3.282,3.273-3.282,8.586,0,11.868l11.868,11.868
				c1.637,1.637,3.785,2.459,5.934,2.459c2.149,0,4.297-0.823,5.934-2.459c3.282-3.282,3.282-8.586,0-11.868L174.941,79.268z"/>
			<path d="M352.396,201.443h-50.361V92.328c0-4.633-3.76-8.393-8.393-8.393c-4.633,0-8.393,3.76-8.393,8.393v117.508
				c0,4.633,3.76,8.393,8.393,8.393h58.754c4.633,0,8.393-3.76,8.393-8.393S357.03,201.443,352.396,201.443z"/>
		</g>
	</g>
</g>
</svg>